<?xml version="1.0" standalone="no"?>
<!DOCTYPE svg PUBLIC "-//W3C//DTD SVG 1.1//EN" "http://www.w3.org/Graphics/SVG/1.1/DTD/svg11.dtd" >
<!--
2013-9-30: Created.
-->
<svg>
<metadata>
Created by iconfont
</metadata>
<defs>

<font id="iconfont" horiz-adv-x="1024" >
  <font-face
    font-family="iconfont"
    font-weight="500"
    font-stretch="normal"
    units-per-em="1024"
    ascent="896"
    descent="-128"
  />
    <missing-glyph />
    
    <glyph glyph-name="feizhu" unicode="&#58969;" d="M953.837037 592.592593h54.992593l-1.896297-11.377778-9.481481-39.822222c0-3.792593-3.792593-15.17037-7.585185-26.548149-5.688889-17.066667-13.274074-36.02963-24.651852-54.992592-28.444444-53.096296-66.37037-96.711111-117.570371-127.051852-5.688889-104.296296-45.511111-197.214815-109.985185-263.585185-72.059259-72.059259-168.77037-109.985185-278.755555-109.985185-111.881481 0-214.281481 39.822222-286.340741 113.777777-70.162963 72.059259-106.192593 170.666667-106.192593 288.237037 1.896296 240.82963 182.044444 417.185185 493.037037 413.392593h449.422223l-11.377778-60.681481c-9.481481-45.511111-24.651852-89.125926-43.614815-121.362963z m-108.088889-62.577778l9.481482 15.17037 39.822222 64.474074c17.066667 26.548148 32.237037 64.474074 39.822222 102.4H553.718519c-140.325926 0-252.207407-37.925926-326.162963-111.881481-62.577778-62.577778-98.607407-147.911111-98.607408-240.82963 0-100.503704 30.340741-185.837037 89.125926-244.622222 60.681481-60.681481 146.014815-94.814815 242.725926-94.814815 94.814815 0 176.355556 32.237037 237.037037 92.918519 54.992593 56.888889 89.125926 136.533333 92.918519 227.555555l1.896296 28.444445 3.792592 1.896296 18.962963 11.377778c60.681481 34.133333 96.711111 91.022222 117.570371 149.807407h-87.22963z m-345.125926-89.125926c73.955556 0 132.740741-62.577778 132.740741-140.325926 0-77.748148-58.785185-140.325926-132.740741-140.325926h-104.296296c-73.955556 0-132.740741 62.577778-132.740741 140.325926 0 77.748148 58.785185 140.325926 132.740741 140.325926h104.296296z m0-221.866667c39.822222 0 72.059259 36.02963 72.059259 79.644445s-32.237037 79.644444-72.059259 79.644444h-104.296296c-39.822222 0-72.059259-36.02963-72.059259-79.644444s32.237037-79.644444 72.059259-79.644445h104.296296z m-174.459259 246.518519c0-22.755556-18.962963-41.718519-41.718519-41.718519-22.755556 0-41.718519 18.962963-41.718518 41.718519 0 22.755556 18.962963 41.718519 41.718518 41.718518 22.755556 0 41.718519-18.962963 41.718519-41.718518z m309.096296 41.718518c22.755556 0 41.718519-18.962963 41.718519-41.718518 0-22.755556-18.962963-43.614815-41.718519-43.614815-22.755556 0-41.718519 18.962963-41.718518 43.614815 0 22.755556 18.962963 41.718519 41.718518 41.718518z m-229.451852-176.355555c17.066667 0 32.237037-13.274074 32.237037-32.237037 0-17.066667-13.274074-32.237037-32.237037-32.237037-17.066667 0-32.237037 13.274074-32.237037 32.237037 0 17.066667 13.274074 32.237037 32.237037 32.237037z m87.22963 0c17.066667 0 32.237037-13.274074 32.237037-32.237037 0-17.066667-13.274074-32.237037-32.237037-32.237037-17.066667 0-32.237037 13.274074-32.237037 32.237037 0 17.066667 15.17037 32.237037 32.237037 32.237037z"  horiz-adv-x="1024" />

    
    <glyph glyph-name="changyonglogo40" unicode="&#58883;" d="M521.62137026 108.39715274000002c-112.45711585-6.09642245-211.39235021 61.60215413-254.52346146 153.89734882-47.39946364 101.41667509-38.45804605 201.54890073 29.21480656 290.91163872 64.51403162 85.1955638 154.18887941 119.04056447 260.38837311 106.35726297 52.71732759-6.29706278 99.19246747-27.9406467 139.71009271-62.3292663 21.9831304-18.66997055 21.4926738-27.0128925-2.87929434-40.99950827-21.17713357-12.15854572-42.46059013-24.12502461-63.52797196-36.47563713-58.24612154-34.12281297-116.85236876-67.65398948-174.41939564-102.90005219-30.82851628-18.86375172-36.99353207-48.95829662-19.76235319-80.1812361 18.64081614-33.7678304 54.77862116-41.62887101 93.06689228-19.49311611 113.77243239 65.79505231 227.16416163 132.24347531 341.29500532 197.41945448 18.8843309 10.78149159 20.95934279 21.75162127 12.5684033 40.02545259-29.52348762 64.2876673-73.00272055 117.09416914-131.26599086 156.5965803-128.74167741 87.28772443-266.10751947 101.27262583-406.77966389 34.96482167-140.33431063-66.15003318-216.56616327-182.31130333-229.23917353-335.4078001-10.50025057-126.91875381 37.79095536-234.37697467 129.40019456-322.81024409 127.72646503-123.29348249 341.18696796-142.69399398 487.90065646-43.57526802 38.20252731 25.80046853 38.20252731 25.80046853 14.51651466 65.20856067-25.6101161 42.5977819-51.0230189 50.51541355-95.481454 29.20280257C609.73567238 118.64874544999998 566.12782122 105.54872719000002 521.62137026 108.39715274000002zM907.79667222 288.75691594c-2.11617025 30.48896809-18.64939135 55.25535942-32.91724646 80.79001964-4.65763247 8.33949321-12.13110736 5.1309403-18.80030147 1.32560781-26.1503046-14.97095937-52.22001019-30.07053531-78.56924243-44.6779386-11.19992439-6.2096046-13.18061726-13.72938099-6.705206-24.64463392 15.00697296-25.29457586 29.90419079-50.65603408 44.29208892-76.29873164 6.2524757-11.1399029 13.75167455-13.68822429 24.54174136-6.86640572 15.75637701 9.95834604 32.0220771 19.19472467 47.23312083 29.91962521C900.40208198 257.85637591 908.35229513 271.27707749 907.79667222 288.75691594z"  horiz-adv-x="1024" />

    
    <glyph glyph-name="tubiao207" unicode="&#58884;" d="M511.574284 864.240169c-265.174892 0-480.091782-214.973175-480.091782-480.088712 0-265.11042 214.91689-480.088712 480.091782-480.088712 265.050042 0 480.089735 214.978292 480.089735 480.088712C991.662996 649.2669940000001 776.624327 864.240169 511.574284 864.240169zM634.972511 198.24361899999997c-25.254362-18.62916-55.759559-32.693131-92.016014-35.56876l0-59.20315-63.39072 0 0 60.140543c-38.752418 4.561095-66.634756 16.063608-90.137134 34.942466-31.133538 24.815342-40.636415 51.322291-46.758126 84.579291l95.39104 23.316127c0-31.320812 32.378961-67.198625 80.642443-67.198625 28.75219 0 63.134881 14.064995 62.758286 51.510588-0.249699 30.626977-32.630707 52.567714-67.635598 60.446527-36.258501 8.127488-109.521529 33.067679-129.773731 55.322587-20.381144 22.126988-26.007551 53.573673-26.007551 90.14225 0 31.442591 14.00564 63.198329 36.755852 82.393404 22.128011 18.687491 48.008667 30.691448 84.764518 35.190118l0 50.508724 63.39072 0 0-50.321449c34.754169-3.750597 63.385603-14.691288 85.390812-33.442227 27.377824-23.506471 41.254522-53.635074 41.254522-71.763813l-95.268237-22.378733c0 23.501354-35.255613 52.510406-59.259435 52.510406-31.130468 0-55.760583-8.754804-55.760583-47.694496 0-28.008211 21.256113-37.134493 58.139884-48.94913 62.010214-19.753827 109.017015-45.443115 130.644606-67.637644 21.504788-22.318355 32.257182-50.386944 32.257182-84.325499C680.355248 248.81272 664.72452 220.49340900000004 634.972511 198.24361899999997z"  horiz-adv-x="1025" />

    
    <glyph glyph-name="shouji" unicode="&#59028;" d="M649.796518 230.714614v-92.648423H173.451242V697.488078h314.719653c24.213816 23.87507 52.751385 43.291489 84.457574 56.914259H173.451242V814.645096c0 13.216075 11.201588 24.417663 24.418662 24.417663h427.508951c13.239058 0 24.418662-11.201588 24.418662-24.417663v-39.852072c10.047455 1.109167 20.299755 1.855606 30.685956 1.855606 8.848355 0 17.606778-0.520609 26.274269-1.35798V814.645096C706.756742 859.384497 670.14124 896 625.378855 896h-427.508951c-44.785367 0-81.33392-36.615503-81.33392-81.355904v-861.309177c0-44.718418 36.547554-81.334919 81.33392-81.334919h427.508951c44.762384 0 81.377887 36.616502 81.377887 81.334919v276.882068c-8.667491-0.83837-17.424914-1.358979-26.274268-1.358979-10.385201 0-20.638501 0.703472-30.685956 1.856606m0-277.378695c0-13.193092-11.179604-24.418662-24.418662-24.418663h-427.508951c-13.216075 0-24.418662 11.224571-24.418662 24.418663V81.128949H649.796518v-127.79303zM680.46049 275.749793c-125.189985 0-227.004525 101.835524-227.004525 227.004525 0 125.145019 101.81454 227.004525 227.004525 227.004525 125.190985 0 227.004525-101.859506 227.004525-227.004525 0-125.169001-101.81354-227.004525-227.004525-227.004525m0 397.047827c-93.756591 0-170.043301-76.285711-170.043301-170.043302 0-93.75759 76.28671-170.044301 170.043301-170.0443 93.758589 0 170.044301 76.28671 170.044301 170.0443S774.21908 672.79762 680.46049 672.79762M670.005342 400.87183l-103.53225 82.962697 35.597267 44.400656 57.797596-46.256263 80.495549 106.837767 45.509824-34.262269zM448.477704 6.492999c0-20.207824-16.406679-36.614503-36.615503-36.614503s-36.616502 16.406679-36.616502 36.614503c0 20.209823 16.406679 36.616502 36.616502 36.616502s36.615503-16.406679 36.615503-36.616502"  horiz-adv-x="1024" />

    
    <glyph glyph-name="shouji1" unicode="&#58903;" d="M766.003899-78.097466H282.947368a47.906433 47.906433 0 0 0-47.906432 47.906433V812.163743a47.906433 47.906433 0 0 0 47.906432 47.906432h483.056531a47.906433 47.906433 0 0 0 47.906432-47.906432v-842.354776a47.906433 47.906433 0 0 0-47.906432-47.906433z m-241.528265 57.88694a61.879142 61.879142 0 1 1-61.879143 61.879142 61.879142 61.879142 0 0 1 61.879143-61.879142z m202.604288 791.454191H321.871345v-598.83041h405.208577V771.243665z"  horiz-adv-x="1024" />

    
    <glyph glyph-name="jinbi1" unicode="&#59035;" d="M548.571429 447.926857V420.571429h109.714285a36.571429 36.571429 0 0 0 0-73.142858h-109.714285v-73.142857h109.714285a36.571429 36.571429 0 0 0 0-73.142857h-109.714285v-79.798857a36.571429 36.571429 0 1 0-73.142858 0V201.142857h-109.714285a36.571429 36.571429 0 0 0 0 73.142857h109.714285v73.142857h-109.714285a36.571429 36.571429 0 0 0 0 73.142858h109.714285v29.842285L346.477714 579.364571a36.571429 36.571429 0 1 0 51.712 51.712l115.053715-115.053714 115.053714 115.053714a36.571429 36.571429 0 0 0 51.748571-51.712L548.571429 447.926857zM512-128C229.229714-128 0 101.229714 0 384S229.229714 896 512 896s512-229.229714 512-512-229.229714-512-512-512z m0 73.142857c242.358857 0 438.857143 196.498286 438.857143 438.857143S754.358857 822.857143 512 822.857143 73.142857 626.358857 73.142857 384s196.498286-438.857143 438.857143-438.857143z"  horiz-adv-x="1024" />

    
    <glyph glyph-name="icon_tianmaochaoshi" unicode="&#59009;" d="M881.777778 537.884444l-50.062222-230.4a13.653333 13.653333 0 0 0-13.368889-13.084444l-512-31.857778-7.395556-43.52s513.991111 1.706667 515.697778 0c32.711111-10.808889 4.266667-46.933333 4.266667-46.933333l-16.782223-5.688889h-31.004444a44.373333 44.373333 0 1 0-39.537778 0L281.6 169.528889a43.804444 43.804444 0 0 0 28.444444-40.96 44.373333 44.373333 0 1 0-59.733333 41.244444H218.453333c-23.893333 0-15.928889 23.893333-15.928889 23.893334s19.057778 37.546667 41.244445 93.013333l22.471111 179.2a1528.035556 1528.035556 0 0 1-116.053333 149.902222 30.435556 30.435556 0 0 0 0 39.253334s20.48 25.031111 44.088889 9.671111l96.711111-116.622223h584.817777c7.964444-1.137778 5.973333-10.24 5.973334-10.24z m-528.213334-56.888888l-24.177777-168.106667c14.791111-16.497778 42.666667 0 42.666666 0l24.746667 168.106667c-15.928889 15.36-43.52 0-43.52 0z m102.968889 0l-22.186666-158.151112c14.791111-16.497778 42.666667 0 42.666666 0l22.755556 158.435556c-16.213333 13.937778-44.657778-1.422222-44.657778-1.422222z m102.115556 0L537.884444 327.111111c14.791111-16.497778 42.382222 0 42.382223 0l21.333333 153.031111c-15.928889 15.075556-43.235556-0.284444-43.235556-0.284444z m102.115555 0l-21.902222-142.222223c14.506667-16.213333 41.244444 0 41.244445 0l21.617777 142.222223c-15.928889 15.36-41.244444 0-41.244444 0z m101.831112 0l-21.333334-139.662223c14.791111-16.497778 41.528889 0 41.528889 0l20.764445 139.662223c-15.928889 15.36-41.244444 0-41.244445 0z m-11.946667 93.582222c5.688889 78.791111-48.071111 77.368889-48.071111 77.368889a79.644444 79.644444 0 0 0 7.395555-26.737778l1.137778-51.768889h-20.195555V623.502222a209.635556 209.635556 0 0 0 7.111111 28.444445C641.706667 640 654.222222 574.577778 654.222222 574.577778h-153.884444c3.413333 74.524444-43.804444 70.542222-43.804445 70.542222a120.888889 120.888889 0 0 0 6.542223-31.004444v-44.088889h-17.635556V615.253333A90.453333 90.453333 0 0 0 455.111111 645.973333s-59.448889-4.835556-47.217778-74.808889h-49.777777v91.022223a61.155556 61.155556 0 0 0 17.066666 50.346666s33.564444 22.471111 56.888889-25.884444a48.071111 48.071111 0 0 1 49.493333-28.444445h193.991112a64.284444 64.284444 0 0 1 54.897777 45.511112c18.488889 28.444444 40.391111 23.324444 52.053334 13.084444a40.106667 40.106667 0 0 0 12.231111-24.746667v-117.475555a292.408889 292.408889 0 0 0-44.373334 0z m-184.604445 28.444444l16.782223-20.764444 14.506666 20.764444z"  horiz-adv-x="1024" />

    
    <glyph glyph-name="chihuotai" unicode="&#58904;" d="M271.314 552.53c92.38 0 167.302-74.917 167.302-167.297s-74.922-167.302-167.302-167.302-167.302 74.922-167.302 167.302S178.934 552.53 271.314 552.53z m0-92.406c-41.353 0-74.891-33.538-74.891-74.891 0-41.354 33.538-74.887 74.891-74.887 41.354 0 74.891 33.533 74.891 74.887-0.005 41.353-33.537 74.891-74.891 74.891z m0 0M529.613 635.326h291.962c29.743 0 54.083-24.335 54.083-54.083 0-29.743-24.362-54.079-54.083-54.079H529.613c-29.721 0-54.083 24.336-54.083 54.079 0 29.748 24.336 54.083 54.083 54.083z m0 0M583.692 672.525v-89.842c0-29.744-24.332-54.079-54.079-54.079s-54.083 24.344-54.083 54.079v89.842c0 29.735 24.336 54.079 54.083 54.079 29.747-0.001 54.079-24.336 54.079-54.079z m0 0M831.274 431.727a216.569 216.569 0 0 0 8.109-6.527c5.901-4.719 5.585-14.623 1.972-20.782l-105.678-187.03c-4.368-6.976-8.184-22.1 6.323-23.833l150.164 4.505c11.57 0.524 12.642-10.242 11.904-12.263-30.045-84.151-110.454-144.401-204.918-144.401-113.494 0-206.7 86.972-216.64 197.888l0.933 0.284 0.027 0.085C732.63 317.7 835.807 428.159 835.807 428.159c-1.502 1.217-3.018 2.391-4.533 3.568z m0 0M828.666 435.233S725.489 324.774 476.325 246.728l-0.022-0.08s-69.848-21.829-95.152-21.829c0 0-34.36 2.03 21.358 34.688l73.714 40.74 0.013-0.026c0.596 4.359 1.319 8.66 2.155 12.902 30.445 153.514 220.226 227.939 350.275 122.11z m0 0M880.488 255.037c20.057 0 36.416 16.356 36.416 36.417 0 20.056-16.359 36.416-36.416 36.416-20.062 0-36.417-16.36-36.417-36.416 0-20.061 16.356-36.417 36.417-36.417z m0 0M899.176 348.865c11.465 0 20.812 9.349 20.812 20.812s-9.348 20.812-20.812 20.812c-11.459 0-20.807-9.353-20.807-20.812 0-11.463 9.348-20.812 20.807-20.812z m0 0"  horiz-adv-x="1024" />

    
    <glyph glyph-name="tianmao" unicode="&#59005;" d="M980.064 633.472c-11.008 4.448-20.896 6.464-29.664 6.112-8.8-0.384-17.6-3.328-26.4-8.864a139.2 139.2 0 0 1-20.32-14.976 404.48 404.48 0 0 1-11.52-11.072c-1.472-2.208-4.032-5.536-7.68-9.952-17.6-20.672-31.68-36.384-42.304-47.072-10.624-10.72-25.088-23.648-43.424-38.784a176.736 176.736 0 0 0-58.24-32.672c-20.48-6.656-42.816-9.984-67.008-9.984H350.496a184.992 184.992 0 0 0-58.24 9.408 304.128 304.128 0 0 0-47.264 19.392c-12.448 6.656-27.072 18.112-43.936 34.368a740.64 740.64 0 0 0-34.592 34.88A2649.28 2649.28 0 0 0 131.84 604.672c-6.592 9.6-18.304 19.04-35.168 28.256-16.832 9.248-34.432 9.44-52.736 0.544C14.656 612.8 0 568.512 0 500.544V262.4c1.472-28.8 8.224-49.472 20.32-62.048 12.096-12.544 29.12-19.936 51.104-22.144 4.64 0 5.344 0.32 10.336 0h861.12c5.28 0.32 6.88 0 10.784 0 22.72 2.24 39.744 9.6 51.104 22.144 11.328 12.576 17.76 33.248 19.232 62.048V500.576c0 69.408-14.656 113.696-43.936 132.896zM191.168 231.39200000000005c-30.016 4.416-54.944 17.152-74.72 38.208-19.776 21.056-29.664 46.72-29.664 76.992 0 30.272 11.008 56.672 32.96 79.2 21.984 22.528 47.616 33.792 76.928 33.792-9.536-1.472-17.6-13.312-24.16-35.456-6.592-22.144-9.92-48.736-9.92-79.744 0-56.128 9.536-93.792 28.576-112.992z m92.864 37.664c-20.16-20.704-45.248-33.248-75.264-37.664 8.768 6.624 15.552 20.288 20.32 40.96 4.768 20.704 7.136 44.704 7.136 72 0 31.776-3.104 58.368-9.344 79.776-6.208 21.44-14.08 33.248-23.616 35.456 30.752 0 56.96-11.072 78.56-33.248a110.176 110.176 0 0 0 32.416-79.744c0-31.04-10.08-56.864-30.208-77.536z m195.552 95.264c2.56 2.944 6.4 4.416 11.52 4.416h41.76c6.592 0 11.2-1.472 13.76-4.416 2.56-2.976 1.984-6.304-1.664-9.984l-12.096-16.64-13.184-19.904c-1.44-1.472-4-2.24-7.68-2.24-3.68 0-5.504 0.768-5.504 2.24a39.68 39.68 0 0 0-3.84 5.536 70.816 70.816 0 0 1-11.52 14.4l-12.096 16.64c-2.208 3.648-2.016 6.976 0.544 9.92z m153.28-149.984c-3.68-7.04-12.992-12.032-28.032-14.912-15.008-2.88-30.944-2.24-47.776 1.92-16.864 4.16-28.928 12.352-36.288 24.544-0.704 0.64-1.088 1.6-1.088 2.88a11.296 11.296 0 0 1-7.68 2.88 10.048 10.048 0 0 1-6.592-2.88c-1.472-1.28-2.208-2.24-2.208-2.88-7.328-12.832-19.2-21.344-35.712-25.504a100.672 100.672 0 0 0-46.688-1.44c-14.656 3.2-24.544 8.32-29.664 15.36v11.584c4.384-3.84 12.288-7.552 23.616-11.072 11.36-3.52 24.544-4.32 39.552-2.4 15.04 1.92 26.56 8.96 34.624 21.152 5.12 7.712 8.032 16.384 8.768 25.984 1.472 6.4 2.24 11.872 2.24 16.384h24.16c0-7.712 0.32-13.152 1.088-16.384 0.736-1.92 2.016-6.08 3.84-12.48 1.824-6.432 3.488-10.912 4.96-13.504 9.504-10.88 21.76-17.472 36.8-19.712 15.008-2.24 28-1.92 39.008 0.96 10.976 2.88 18.656 6.592 23.04 11.072v-11.552z m181.28 17.056a126.336 126.336 0 0 0-73.6 38.752 106.688 106.688 0 0 0-30.784 76.448c0 30.272 11.2 56.672 33.504 79.2 22.368 22.528 48.544 33.792 78.56 33.792-10.24-2.24-18.496-13.856-24.704-34.88-6.24-21.088-9.344-47.84-9.344-80.32 0-57.6 8.8-95.264 26.368-112.992z m93.92 37.664c-19.392-20.704-44.48-33.248-75.232-37.664 8.768 6.624 15.552 20.288 20.32 40.96 4.768 20.704 7.136 44.704 7.136 72 0 31.776-3.104 58.368-9.344 79.776-6.208 21.44-14.464 33.248-24.704 35.456 31.488 0 57.856-11.072 79.104-33.248 21.216-22.144 31.84-48.736 31.84-79.744 0-31.04-9.696-56.864-29.12-77.536z"  horiz-adv-x="1024" />

    
    <glyph glyph-name="dingdanliebiao" unicode="&#59006;" d="M216.358538-127.512774C137.977577-127.405419 74.464803-63.891728 74.35653 14.489233v738.637993C74.46572 831.509104 137.978495 895.022796 216.359455 895.130151h590.892043c78.380043-0.107355 141.893735-63.621047 142.00109-142.002008v-738.541648c-0.107355-78.380043-63.621047-141.893735-142.002007-142.00109l-590.892043-0.097262zM218.526738 828.932588c-43.600746-0.054136-78.933333-35.356444-78.986552-78.921405v-732.503169c0.053219-43.564043 35.385806-78.867269 78.986552-78.920487h586.554724c43.601663 0.053219 78.934251 35.356444 78.98747 78.920487v732.60043c-0.053219 43.564043-35.385806 78.867269-78.98747 78.91957l-586.554724-0.095426zM278.008659 352.544115a31.263197 31.263197 0 1 0 0 62.430967h467.493621a31.263197 31.263197 0 1 0 0-62.430967H278.008659z m0-147.649606a31.263197 31.263197 0 1 0 0 62.040086H596.975484c17.266695 0 31.264115-13.996502 31.264115-31.263197 0-17.266695-13.997419-31.264115-31.264115-31.264115l-318.966825 0.487226z m0 295.787355c-17.265778 0-31.263197 13.996502-31.263197 31.263197 0 17.266695 13.997419 31.263197 31.263197 31.263197h467.493621c17.266695 0 31.263197-13.996502 31.263197-31.263197 0-17.266695-13.996502-31.263197-31.263197-31.263197H278.008659z"  horiz-adv-x="1024" />

    
    <glyph glyph-name="shouye" unicode="&#58880;" d="M554.5 347.5c104.6 66.1 195.1 138.6 259.1 206.6-21.5 47-53.6 87.9-93.5 120-13.3 10.9-27.6 20.7-42.5 29.2-49.1 28.7-106.5 45.1-167.5 45.1-184.8 0-334.5-149.7-334.5-334.3 0-81.5 29.2-156.4 77.8-214.5 92.5 31.4 199.2 83.7 301.1 147.9z m-21 348.2c1.4 0.3 2.7 0 4.1 0v0.1s0.8 0 1.5-0.1c1-0.1 2.1 0 3.1-0.2 12.1-0.9 48.6-5.1 89.2-24.1 33.5-15.7 74.5-44.1 100.1-78.7 0.5-0.6 0.7-1.4 1.1-2.1 0.9-1.6 1.6-3.2 2-4.8 0.1-0.4 0.3-0.6 0.4-1v-0.8c0.4-2.3 0.3-4.4 0-6.3-0.1-0.8-0.3-1.5-0.5-2.3-0.6-1.9-1.3-3.5-2-4.8-0.3-0.5-0.6-1.1-0.9-1.6-1-1.5-1.8-2.4-1.8-2.4s-0.6-0.4-1.4-0.9c-2.6-2.3-5.6-4.2-9.2-4.9-8.4-1.7-16.5 2.1-21 8.8l-0.5 0.5c-13.6 16.4-38.8 49.5-94.4 69.1-55.6 19.6-66.2 15.7-66.2 15.7v0.5c-9.4 0.3-17.7 6.5-19.6 16.1-2.4 11.1 4.8 21.9 16 24.2z m-75 0.3c10 5 22.2 1 27.2-9s1-22.2-9-27.2-22.2-1-27.2 9-1 22.2 9 27.2zM611.1 257.79999999999995c-87.3-55.2-178.4-102.2-262.8-136.5 48.1-26.6 103.3-41.7 162-41.7 184.5 0 334.3 149.7 334.3 334.5 0 6.6-0.3 13.5-0.8 20.2-64.4-60-144.3-120.5-232.7-176.5zM969.2 755.1c-45.7 56.4-157.1 35.5-242.6 8-13.1-4.2-20.4-18.3-16.1-31.5 4.2-13.1 18.3-20.4 31.5-16.1 50.4 16.2 94.9 24.9 128.7 25.3 29.3 0.3 50.4-5.8 59.6-17 14.4-18.1 6.4-66.1-59.3-146.7-64.5-78.8-165.3-165.4-284-243.9C481 263 369.5 205.79999999999995 273.3 172.10000000000002 146.6 127.89999999999998 82 136.5 65.2 157.29999999999995c-11.9 14.8-4.6 41 3.5 60.3 14 33 42.2 73.2 81.5 116.3 9.3 10.2 8.6 26-1.6 35.3-10.2 9.3-26 8.6-35.3-1.6-43.8-47.9-74.3-91.9-90.6-130.5-24.5-57.7-11.6-92.3 3.5-111.2 19.1-23.7 51.6-35.7 96.7-35.7 3.3 0 6.6 0.1 10.1 0.2 43.2 1.6 95.9 13.2 156.8 34.5 100 35 215.4 94.2 324.8 166.6 122.7 81.2 227.5 171.4 295 254 95 116.3 84.8 178.2 59.6 209.6z"  horiz-adv-x="1024" />

    
    <glyph glyph-name="gengduo" unicode="&#59083;" d="M144 464c-44.112 0-80-35.888-80-80s35.888-80 80-80 80 35.888 80 80-35.888 80-80 80zM512 464c-44.112 0-80-35.888-80-80s35.888-80 80-80 80 35.888 80 80-35.888 80-80 80zM880 464c-44.112 0-80-35.888-80-80s35.888-80 80-80 80 35.888 80 80-35.888 80-80 80z"  horiz-adv-x="1024" />

    
    <glyph glyph-name="elemo1" unicode="&#59170;" d="M512 896C230.4 896 0 665.6 0 384s230.4-512 512-512 512 230.4 512 512S793.6 896 512 896z m128-706.56c-84.48-56.32-207.36-46.08-281.6 25.6-53.76 51.2-79.36 112.64-74.24 186.88 7.68 87.04 51.2 156.16 133.12 192 81.92 38.4 161.28 30.72 235.52-20.48 33.28-23.04 58.88-53.76 76.8-89.6 5.12-10.24 2.56-17.92-7.68-23.04-66.56-38.4-130.56-76.8-197.12-112.64-23.04-12.8-43.52-7.68-53.76 10.24-10.24 17.92-5.12 35.84 10.24 46.08 33.28 20.48 66.56 38.4 99.84 58.88 12.8 7.68 25.6 12.8 35.84 20.48 12.8 7.68 15.36 12.8 2.56 23.04-23.04 20.48-51.2 33.28-79.36 35.84-61.44 7.68-112.64-12.8-151.04-61.44-38.4-51.2-43.52-110.08-17.92-166.4 25.6-53.76 81.92-92.16 145.92-89.6 25.6-2.56 51.2 5.12 74.24 17.92 25.6 12.8 40.96 7.68 53.76-17.92 17.92-23.04 17.92-23.04-5.12-35.84z m89.6 115.2c-7.68-5.12-17.92-10.24-28.16-17.92-5.12-5.12-10.24-2.56-15.36 5.12-7.68 15.36-17.92 28.16-25.6 43.52-2.56 5.12-2.56 10.24 5.12 15.36 15.36 7.68 30.72 17.92 46.08 25.6 2.56 2.56 7.68 5.12 10.24 0 7.68-15.36 17.92-28.16 17.92-46.08 0-10.24-2.56-17.92-10.24-25.6z"  horiz-adv-x="1024" />

    
    <glyph glyph-name="wode" unicode="&#59898;" d="M927.96710205 27.9375c0-17.71875-14.34375-32.0625-32.0625-32.0625-17.71875 0-32.0625 14.34375-32.0625 32.0625v17.296875c0 80.15625-163.265625 193.640625-350.578125 193.640625-148.921875 0-353.109375-95.34375-353.109375-190.265625v-20.671875c0-17.71875-14.34375-32.0625-32.0625-32.0625S96.02960205 10.21875 96.02960205 27.9375v40.078125c0 48.09375 71.296875 171.28125 265.78125 216.84375-70.03125 48.09375-116.4375 128.671875-116.4375 220.21875 0 147.234375 119.390625 266.625 266.625 266.625 147.234375 0 266.625-119.390625 266.625-266.625 0-89.859375-44.71875-169.171875-113.0625-217.6875 196.59375-43.875 262.40625-173.390625 262.40625-219.375v-40.078125zM714.5 505.5c0 111.796875-90.703125 202.5-202.5 202.5s-202.5-90.703125-202.5-202.5S400.203125 303 512 303s202.5 90.703125 202.5 202.5z"  horiz-adv-x="1024" />

    
    <glyph glyph-name="sousuo" unicode="&#58894;" d="M898.276 42.667L732.729 213.333a348.729 348.729 0 1 1-48.356-48.355l168.96-167.254a33.564 33.564 0 0 1 47.787 47.787zM463.644 152.462a279.893 279.893 0 1 0 279.894 279.894 280.462 280.462 0 0 0-279.894-279.894z"  horiz-adv-x="1024" />

    
    <glyph glyph-name="chongzhitianchong" unicode="&#59377;" d="M787.2 817.066667c2.133333-8.533333 2.133333-17.066667 0-25.6-2.133333-8.533333-6.4-17.066667-10.666667-25.6-4.266667-6.4-10.666667-12.8-14.933333-17.066667h-2.133333c-2.133333-2.133333-8.533333-6.4-21.333334-17.066667-10.666667-8.533333-19.2-17.066667-29.866666-27.733333-6.4-6.4-12.8-12.8-25.6-17.066667-8.533333-4.266667-17.066667-4.266667-32-4.266666H364.8c-25.6 0-38.4 10.666667-49.066667 21.333333-10.666667 8.533333-19.2 19.2-29.866666 27.733333-12.8 10.666667-17.066667 14.933333-21.333334 17.066667l-19.2 19.2c-4.266667 6.4-8.533333 14.933333-10.666666 23.466667-2.133333 10.666667-2.133333 19.2 0 27.733333 2.133333 10.666667 8.533333 19.2 14.933333 25.6 10.666667 8.533333 21.333333 12.8 34.133333 12.8h4.266667c6.4 0 14.933333-2.133333 21.333333-6.4 6.4-2.133333 12.8-4.266667 17.066667-6.4 2.133333 0 6.4-2.133333 17.066667-2.133333h4.266666l12.8 12.8 19.2 19.2c17.066667 10.666667 32 21.333333 49.066667 21.333333 23.466667 0 36.266667-12.8 44.8-19.2l19.2-19.2c4.266667-4.266667 8.533333-8.533333 12.8-10.666667h12.8l12.8 12.8c6.4 6.4 12.8 12.8 21.333333 19.2 8.533333 8.533333 23.466667 17.066667 40.533334 17.066667 21.333333 0 36.266667-12.8 42.666666-19.2 8.533333-6.4 14.933333-12.8 19.2-19.2l12.8-12.8H674.133333c8.533333 0 12.8 0 14.933334 2.133333 6.4 2.133333 12.8 4.266667 17.066666 6.4 8.533333 2.133333 14.933333 4.266667 21.333334 6.4h4.266666c12.8 0 23.466667-4.266667 34.133334-12.8 12.8-10.666667 19.2-19.2 21.333333-29.866666z m160-482.133334c-8.533333 29.866667-19.2 57.6-29.866667 83.2-12.8 25.6-27.733333 49.066667-44.8 70.4-14.933333 21.333333-32 38.4-49.066666 55.466667-38.4 38.4-66.133333 61.866667-115.2 89.6-4.266667 4.266667-8.533333 6.4-12.8 6.4H334.933333c-4.266667 0-10.666667 0-14.933333-4.266667-46.933333-25.6-81.066667-49.066667-121.6-89.6-17.066667-17.066667-34.133333-36.266667-49.066667-57.6-14.933333-21.333333-29.866667-44.8-42.666666-70.4-12.8-25.6-23.466667-53.333333-29.866667-83.2S64 273.066667 64 238.933333c0-55.466667 8.533333-106.666667 25.6-151.466666 17.066667-44.8 44.8-85.333333 83.2-117.333334 38.4-32 85.333333-55.466667 140.8-72.533333 55.466667-17.066667 121.6-25.6 198.4-25.6 76.8 0 140.8 8.533333 196.266667 25.6 55.466667 17.066667 104.533333 40.533333 140.8 72.533333 38.4 32 66.133333 72.533333 83.2 117.333334 17.066667 44.8 25.6 96 25.6 151.466666 2.133333 34.133333-2.133333 66.133333-10.666667 96z m-320-189.866666h-83.2v-72.533334c0-14.933333-14.933333-29.866667-32-29.866666s-32 12.8-32 29.866666v72.533334h-83.2c-17.066667 0-32 12.8-32 29.866666 0 14.933333 14.933333 29.866667 32 29.866667h83.2v42.666667h-83.2c-17.066667 0-32 12.8-32 29.866666 0 14.933333 14.933333 29.866667 32 29.866667h83.2v23.466667l-104.533333 89.6c-12.8 10.666667-12.8 29.866667 0 40.533333 12.8 12.8 34.133333 12.8 46.933333 0l91.733333-78.933333 91.733334 78.933333c12.8 10.666667 34.133333 10.666667 46.933333 0 12.8-12.8 12.8-29.866667 0-40.533333l-104.533333-91.733334v-23.466666h83.2c17.066667 0 32-12.8 32-29.866667 0-14.933333-14.933333-29.866667-32-29.866667h-83.2v-40.533333h83.2c17.066667 0 32-12.8 32-29.866667-4.266667-17.066667-19.2-29.866667-36.266667-29.866666z"  horiz-adv-x="1024" />

    
    <glyph glyph-name="jinribaokuan_shwhk" unicode="&#58893;" d="M125 312.56c0 83.44 46.065 196.7 125.24 263.725 11.517 8.742 23.033 17.484 34.549 27.683 51.823 40.798 112.283 85.967 168.426 212.728 5.758 14.57 23.031 20.398 37.428 14.57 30.23-11.656 133.877-61.196 174.184-166.103 15.835-40.796 29.87-97.537 22.673-144.163 11.517 13.113 10.436 37.8 19.073 49.456 4.319 7.285 11.517 11.657 20.154 13.113 8.638 1.457 15.835-1.457 23.032-5.828C828.934 510.717 875 396 875 314.017 875 146 775.671 31.351 627.4-18.188c-8.638-2.914-17.275-1.456-24.473 2.915-67.658 42.253-109.405 100.535-135.317 151.531 2.88-68.48 37.429-110.734 51.823-125.305 8.638-8.742 11.517-20.399 5.759-32.054-4.319-13.114-15.835-20.399-27.352-20.399C291.986-41.5 125 146 125 312.56z"  horiz-adv-x="1024" />

    
    <glyph glyph-name="shouye1" unicode="&#58888;" d="M562.805 815.3025a72.135 72.135 0 0 1-96.93 0L73.925 443.13a36.1575 36.1575 0 0 1 48.42-53.7075l6.2325 5.91750001V6.899999989999969a72.315 72.315 0 0 1 72.315-72.40499999h210.4425v217.71a50.9175 50.9175 0 0 0 50.94 50.985h99.0225a50.9175 50.9175 0 0 0 50.94-50.985v-217.71h215.4375a72.315 72.315 0 0 1 72.3375 72.40500001V390.5925c16.065-14.535 38.8575-13.4325 52.2225 1.4625a36.1575 36.1575 0 0 1-2.61 51.075L562.805 815.28z"  horiz-adv-x="1024" />

    
    <glyph glyph-name="tubiaozhizuomoban" unicode="&#58889;" d="M440.19 172.89v-107.76c0-26.23 21.46-47.69 47.69-47.69h68.89c26.23 0 47.69 21.46 47.69 47.69V172.89c0 5.36-0.94 10.49-2.58 15.31H442.77c-1.64-4.81-2.58-9.95-2.58-15.31zM708.7 640.42H308.3c-91.98 0-167.23-75.25-167.23-167.23v-117.77c0-91.97 75.25-167.23 167.23-167.23h134.48a47.828 47.828 0 0 0 11.32 18.25H337.96c-52.69 0-99.86 24.72-130.57 63.11-7.96 9.34-14.6 19.79-19.74 31.08-0.24 0.49-0.48 0.99-0.71 1.48-0.34 0.77-0.71 1.51-1.04 2.28-9.7 21.14-15.16 44.59-15.16 69.27v81.26c0 24.68 5.46 48.13 15.17 69.27 0.32 0.77 0.7 1.51 1.03 2.28 0.24 0.5 0.48 1 0.72 1.49 5.15 11.29 11.79 21.74 19.74 31.07 30.71 38.39 77.88 63.11 130.57 63.11h341.08c52.69 0 99.86-24.72 130.57-63.11 7.95-9.33 14.59-19.78 19.74-31.07 0.24-0.5 0.48-0.99 0.72-1.49 0.34-0.76 0.71-1.5 1.03-2.28 9.7-21.14 15.17-44.59 15.17-69.27v-81.26c0-24.68-5.46-48.13-15.17-69.27-0.32-0.77-0.7-1.52-1.04-2.28-0.24-0.49-0.47-0.99-0.71-1.48-5.15-11.29-11.79-21.74-19.74-31.08-30.71-38.39-77.88-63.11-130.57-63.11h-88.46a47.903 47.903 0 0 0 11.32-18.25H708.7c91.97 0 167.23 75.25 167.23 167.23V473.2c-0.01 91.97-75.26 167.22-167.23 167.22zM454.09 206.46a47.903 47.903 0 0 1-11.32-18.25h159.12a47.828 47.828 0 0 1-11.32 18.25H454.09zM601.89 205.38l-159.12-0.47v1.55h159.12zM601.89 199.96l-159.12-0.47v5.42l159.12 0.47zM442.77 199.49l159.12 0.47v-11.76H442.77zM679.03 206.46c52.69 0 99.86 24.72 130.57 63.11 7.66 9.57 14.31 19.98 19.74 31.08 0.24 0.49 0.48 0.99 0.71 1.48 0.34 0.77 0.71 1.51 1.04 2.28 9.71 21.14 15.17 44.59 15.17 69.27v81.26c0 24.68-5.46 48.13-15.17 69.27-0.32 0.77-0.7 1.51-1.03 2.28-0.24 0.5-0.48 1-0.72 1.49-5.43 11.1-12.08 21.5-19.74 31.07-30.71 38.39-77.88 63.11-130.57 63.11H337.96c-52.69 0-99.86-24.72-130.57-63.11-7.66-9.57-14.3-19.97-19.74-31.07-0.24-0.5-0.48-0.99-0.72-1.49-0.34-0.76-0.71-1.5-1.03-2.28-9.71-21.14-15.17-44.59-15.17-69.27v-81.26c0-24.68 5.46-48.13 15.16-69.27 0.32-0.77 0.7-1.52 1.04-2.28 0.24-0.49 0.47-0.99 0.71-1.48 5.44-11.1 12.09-21.51 19.74-31.08 30.71-38.39 77.88-63.11 130.57-63.11h341.08zM327.64 388.77v-71.97c0-9.47-2.24-13.7-7.72-16.44-5.73-2.74-14.45-3.24-29.14-2.99-0.49 3.98-2.74 10.71-4.98 15.19 10.21-0.25 19.68-0.25 22.42 0 2.99 0 3.98 0.99 3.98 4.23v66.74l-29.13-9.46-4.49 15.69c9.22 2.74 20.92 6.48 33.62 10.46v56.53h-30.13V472.2h30.13v50.56h15.45v-50.56h27.64v-15.44h-27.64v-51.55l27.39 8.72 1.99-15.19-29.39-9.97z m113.32 130.5c-1.5-3.24-3.24-6.23-4.99-9.22 17.19-24.9 48.32-53.29 73.72-68.73-3.24-3.74-6.97-10.21-8.72-14.69-25.15 17.18-54.05 44.58-72.72 69.98-18.43-29.39-43.59-54.54-69.23-71.97-1.99 2.99-6.72 10.21-9.97 13.45 31.38 19.18 60.77 50.8 77.21 86.42l14.7-5.24z m54.28-111.08c-10.71-27.15-25.65-61.52-38.85-85.17h47.32v-14.94H356.28v14.94h85.92c13.45 23.66 29.38 62.26 38.35 89.16l14.69-3.99z m-112.57-1.49c7.97-18.68 14.7-43.08 17.19-59.52l-13.45-3.73c-2.24 16.69-9.21 41.34-16.68 60.02l12.94 3.23z m88.17 24.65h-83.18V445.8h83.18v-14.45zM428 350.66c-1.24 15.94-5.48 40.6-10.21 59.52l13.2 1.99c4.74-19.18 9.22-43.33 10.71-59.27l-13.7-2.24zM573.23 415.66c-9.47 6.97-28.64 18.18-42.59 25.65l9.46 11.71c13.7-6.73 32.88-17.43 42.59-23.91l-9.46-13.45z m8.46-37.1c-9.22-25.9-22.17-56.78-33.13-79.2l-14.94 8.72c10.21 19.18 24.65 51.8 34.86 79.69l13.21-9.21z m-1 102.6c-8.72 7.47-26.65 19.43-40.09 27.64l10.21 11.46c13.2-7.47 30.88-18.68 39.85-25.9l-9.97-13.2z m109.83-53.29v-19.92h59.03v-96.63c0-7.47-1.49-10.96-6.97-13.2-5.23-2.24-14.45-2.24-29.39-2.24-0.74 3.74-2.49 8.47-4.48 11.96 10.71-0.5 20.18-0.25 22.66-0.25 2.99 0.25 3.99 1 3.99 3.74v83.43h-44.83v-96.88h-13.95v96.88h-43.33v-98.62h-13.7v111.8h57.03v19.92h-60.77c-0.74-40.59-6.47-93.14-30.13-130.5-2.74 2.74-9.21 7.22-13.2 8.97 25.65 39.6 28.14 95.13 28.14 135.73v71.97h144.94v-53.79h-129.5v-18.68h137.97v-13.7h-63.51z m-74.46 72.22v-25.65h113.56v25.65H616.06z m30.38-151.17c8.22-6.22 18.93-14.94 24.4-20.42l-7.97-8.47c-5.23 5.73-15.94 14.94-24.15 21.42l7.72 7.47z m0.5 35.12c7.97-5.48 18.43-13.7 24.15-18.68l-7.72-8.97c-5.48 5.48-15.94 13.95-24.16 19.68l7.73 7.97z m72.72-62.51c-5.48 5.48-16.19 14.95-24.4 21.42l7.47 7.47c8.22-6.23 18.93-14.7 24.65-20.17l-7.72-8.72z m1.5 35.11c-5.48 5.48-16.19 14.2-24.65 20.17l7.22 7.72c8.22-5.73 18.93-13.95 24.65-19.18l-7.22-8.71z"  horiz-adv-x="1024" />

    
    <glyph glyph-name="chichi" unicode="&#58891;" d="M539.436096 383.939421l457.474754 228.808479a511.939421 511.939421 0 1 1 0-457.474754z m127.984855 319.962137a63.992428 63.992428 0 1 0-63.992427-63.992427 63.992428 63.992428 0 0 0 63.992427 63.992427z"  horiz-adv-x="1024" />

    
    <glyph glyph-name="gouwuche" unicode="&#58926;" d="M276.841412 110.712471h787.154823a37.707294 37.707294 0 0 1 35.177412 35.026823s53.970824 300.333176 78.607059 507.181177c7.077647 57.223529-19.907765 85.293176-72.734118 85.293176H245.187765l-14.155294 122.699294A36.592941 36.592941 0 0 1 198.174118 896H39.845647a39.755294 39.755294 0 0 1 0-79.450353h123.181177l79.811764-670.930823a35.84 35.84 0 0 1 34.002824-34.936471zM1101.552941 659.937882c-21.232941-165.948235-56.32-387.975529-70.384941-470.738823H310.874353l-56.32 470.738823h846.998588zM315.542588 31.262118a78.305882 78.305882 0 1 1 78.607059-78.305883 78.426353 78.426353 0 0 1-78.546823 78.305883h-0.060236z m709.722353 0a78.305882 78.305882 0 1 1 78.607059-78.305883 78.426353 78.426353 0 0 1-78.576941 78.305883z"  horiz-adv-x="1204" />

    
    <glyph glyph-name="lujing54" unicode="&#58948;" d="M813.298631-127.99025a98.967658 98.967658 0 0 0-20.141846 2.041403 95.609975 95.609975 0 0 0-19.053098 6.12421 109.938074 109.938074 0 0 0-17.283881 9.526549 101.231276 101.231276 0 0 0-27.082618 27.082617 109.931695 109.931695 0 0 0-9.526548 17.283881 95.620607 95.620607 0 0 0-6.12421 19.053098 100.394514 100.394514 0 0 0 0 40.283692 95.620607 95.620607 0 0 0 6.12421 19.053098 109.938074 109.938074 0 0 0 9.526548 17.283881 101.867088 101.867088 0 0 0 12.24842 14.834197 95.48983 95.48983 0 0 0 14.834198 12.112327 101.8118 101.8118 0 0 0 36.336979 14.834197 105.784031 105.784031 0 0 0 20.141846 1.90531A107.917935 107.917935 0 0 0 833.57657 71.5229a106.603782 106.603782 0 0 0 19.457125-5.715929 102.02551 102.02551 0 0 0 17.692162-9.118268 92.467064 92.467064 0 0 0 14.970291-12.112327 101.866025 101.866025 0 0 0 12.249484-14.834197 109.930632 109.930632 0 0 0 9.526548-17.283881 95.62486 95.62486 0 0 0 6.12421-19.053098 100.400893 100.400893 0 0 0 0-40.283692 95.62486 95.62486 0 0 0-6.12421-19.053098 109.938074 109.938074 0 0 0-9.526548-17.283881 101.840508 101.840508 0 0 0-12.249484-14.834197 98.348857 98.348857 0 0 0-14.970291-12.24842 110.241095 110.241095 0 0 0-17.692162-9.526549 99.859709 99.859709 0 0 0-39.739317-8.165613z m-452.919348 2.176433a105.761703 105.761703 0 0 0-20.958408 2.041404 94.421283 94.421283 0 0 0-19.325284 6.12421 109.959339 109.959339 0 0 0-17.283882 9.526548 101.169609 101.169609 0 0 0-27.082617 27.082618 109.960402 109.960402 0 0 0-9.526549 17.283881 95.632303 95.632303 0 0 0-6.12421 19.053098 100.374312 100.374312 0 0 0 0 40.283692 95.632303 95.632303 0 0 0 6.12421 19.053097 109.938074 109.938074 0 0 0 9.526549 17.283882 101.864962 101.864962 0 0 0 12.24842 14.834197 95.508968 95.508968 0 0 0 14.834197 12.11339 101.450302 101.450302 0 0 0 17.283882 9.118268 99.329156 99.329156 0 0 0 19.325284 5.715929 113.082048 113.082048 0 0 0 20.958408 1.90531 105.801043 105.801043 0 0 0 20.141846-1.90531 101.802231 101.802231 0 0 0 36.336978-14.834197 95.505778 95.505778 0 0 0 14.835261-12.112327 101.864962 101.864962 0 0 0 12.24842-14.834197 109.928505 109.928505 0 0 0 9.527612-17.283881 95.647188 95.647188 0 0 0 6.123147-19.053098 100.381755 100.381755 0 0 0 0-40.283692 95.641872 95.641872 0 0 0-6.123147-19.053098 109.938074 109.938074 0 0 0-9.527612-17.283881 101.172799 101.172799 0 0 0-27.082617-27.082617 109.945517 109.945517 0 0 0-17.283882-9.526549 95.605722 95.605722 0 0 0-19.052034-6.12421 98.966595 98.966595 0 0 0-20.143972-2.041403zM893.861762 105.001914H323.361836a77.331972 77.331972 0 0 0-20.005753 2.445431 55.585711 55.585711 0 0 0-16.46732 7.349052 80.559941 80.559941 0 0 0-13.473262 11.295765 87.089242 87.089242 0 0 0-11.023577 14.289824 151.336032 151.336032 0 0 0-8.845018 16.46732 162.189493 162.189493 0 0 0-6.940771 17.828255 314.759936 314.759936 0 0 0-9.250109 34.83995c-0.722997 4.333729-2.73782 14.957532-5.988117 31.577958-3.224779 16.480079-7.254424 37.540556-11.976232 62.603034-4.367753 23.178433-9.531865 50.60979-15.786853 83.83363-5.791419 30.768839-11.653011 62.092684-17.419975 93.087991-13.727374 72.971663-29.47914 155.391195-46.816182 244.968397h-81.656133a52.181246 52.181246 0 0 0-14.970291 2.041403 38.993993 38.993993 0 0 0-12.248419 6.12421 72.571888 72.571888 0 0 0-9.93483 8.982175 71.247102 71.247102 0 0 0-8.030583 10.615297 76.640872 76.640872 0 0 0-5.988116 11.840139 75.826437 75.826437 0 0 0-3.81062 12.652448A118.742689 118.742689 0 0 0 0.003551 801.800911 52.247166 52.247166 0 0 0 3.678077 821.669507a46.902304 46.902304 0 0 0 11.023578 16.054787 47.84539 47.84539 0 0 0 17.283881 10.620613 66.960155 66.960155 0 0 0 22.455437 3.538432h109.963592a107.361866 107.361866 0 0 0 19.597471-1.633122 58.11939 58.11939 0 0 0 15.242478-4.899368 67.910683 67.910683 0 0 0 11.704046-7.349052 52.818121 52.818121 0 0 0 8.982175-8.982175 63.474884 63.474884 0 0 0 10.887484-20.68622 1522.314852 1522.314852 0 0 0 5.443742-18.508723 246.456921 246.456921 0 0 0 4.359247-24.49684 7956.709641 7956.709641 0 0 0 4.359246-32.119142c2.161548-12.965037 4.359247-26.884856 6.532491-41.371377H996.208367a161.429283 161.429283 0 0 0 27.082618-2.041404 76.791851 76.791851 0 0 0 20.277939-6.12421 69.322654 69.322654 0 0 0 14.425917-9.118268 43.321343 43.321343 0 0 0 9.526549-11.023578 47.476449 47.476449 0 0 0 5.171555-12.384513 45.915626 45.915626 0 0 0 1.360935-13.201075 85.69641 85.69641 0 0 0-3.810619-23.409154c-2.182813-6.546313-6.945024-20.095064-14.154793-40.282629-7.22997-20.248169-15.106385-42.775905-23.408091-66.959092a16789.893666 16789.893666 0 0 0-25.041214-72.406024c-8.319782-23.872723-15.097879-42.920505-20.141846-56.614918-4.695228-14.448245-10.051785-26.856149-15.921883-36.881353a102.282812 102.282812 0 0 0-9.288385-13.439239 69.226963 69.226963 0 0 0-10.172993-10.100693A73.822247 73.822247 0 0 0 940.856567 310.468095a76.3538 76.3538 0 0 0-12.55463-5.273626 95.265488 95.265488 0 0 0-28.987927-4.2189h-571.592928l15.242479-97.987359H892.777266a84.270617 84.270617 0 0 0 22.859464-2.789918 42.999184 42.999184 0 0 0 16.331227-8.369753 34.661327 34.661327 0 0 0 9.798736-13.94959 53.788851 53.788851 0 0 0 3.266245-19.529425 76.493083 76.493083 0 0 0-2.585778-20.277939 61.029453 61.029453 0 0 0-7.761585-17.283882 28.26493 28.26493 0 0 0-6.43042-6.911 35.781972 35.781972 0 0 0-8.948152-4.933392 55.517664 55.517664 0 0 0-11.465882-2.960034 91.969472 91.969472 0 0 0-13.979359-0.981363zM743.723991 603.494528a37.733001 37.733001 0 0 1-34.980297-51.894173l56.557504-139.984979a37.53205 37.53205 0 0 1 14.131402-17.317905 37.744697 37.744697 0 0 1 55.861088 45.596657l-56.558567 139.984979a37.787226 37.787226 0 0 1-35.01113 23.615421z m-155.23171 0a37.733001 37.733001 0 0 1-34.980297-51.894173l56.557504-139.984979a37.53205 37.53205 0 0 1 14.131402-17.317905 37.744697 37.744697 0 0 1 55.862151 45.596657l-56.558567 139.984979a37.788289 37.788289 0 0 1-35.012193 23.615421z m-155.231711 0a37.753202 37.753202 0 0 1-34.980296-51.894173l56.558567-139.984979a37.53205 37.53205 0 0 1 14.131402-17.317905 37.674523 37.674523 0 0 1 35.003688-3.538432 37.711736 37.711736 0 0 1 20.856337 49.135089l-56.557504 139.984979a37.788289 37.788289 0 0 1-35.012194 23.615421z m481.289538 123.181678H516.070308L659.785102 870.392063a105.366181 105.366181 0 0 0 12.826817 10.989554 83.109569 83.109569 0 0 0 13.439238 7.92745 71.980731 71.980731 0 0 0 14.05166 4.865344 70.61448 70.61448 0 0 0 14.66408 1.807493c0.425292 0.007443 0.850585 0.011696 1.275877 0.011695a67.114324 67.114324 0 0 0 14.307899-1.531052 68.239222 68.239222 0 0 0 13.720994-4.595284 79.092683 79.092683 0 0 0 13.134091-7.655262 101.113258 101.113258 0 0 0 12.546125-10.722684l144.800352-144.812047z"  horiz-adv-x="1074" />

    
    <glyph glyph-name="taoicon" unicode="&#58882;" d="M252.455385 853.897846c62.306462 0 113.230769-45.292308 113.230769-101.888 0-56.635077-50.924308-101.927385-113.230769-101.927384-62.227692 0-113.230769 45.292308-113.23077 101.927384C139.224615 808.566154 190.227692 853.858462 252.455385 853.858462zM346.820923 246.232615c-30.168615-92.475077-22.646154-58.486154-141.508923-315.155692l-171.716923 107.559385s190.582154 173.646769 230.203077 252.888615c41.511385 83.022769-45.292308 128.315077-45.292308 128.315077l-132.096 81.132308 71.68 109.48923c98.146462-73.609846 105.708308-79.241846 173.646769-147.219692 50.963692-50.924308 45.292308-122.643692 15.084308-217.009231zM1277.243077 125.44c-33.988923-313.265231-441.619692-196.253538-441.619692-196.253538l22.646153 90.584615 79.241847-20.755692c175.497846-11.342769 141.548308 141.548308 141.548307 141.548307V584.034462c0 167.975385-143.438769 186.840615-430.276923 83.062153l73.609846-9.452307c-5.671385-18.904615-20.755692-75.500308-47.182769-75.500308h354.776616v-96.216615h-190.621539v-96.256H1031.876923v-49.073231h-192.472615v-194.402462c0 11.342769 66.048 24.536615 90.584615 45.292308l-17.014154 71.719385 101.927385 32.098461 84.913231-207.556923-124.573539-52.893538-22.646154 84.952615c-56.595692-43.401846-171.716923-103.817846-373.641846-100.036923-217.009231-5.671385-160.413538 256.669538-160.413538 256.669538l5.671384 16.97477h150.961231c-1.890462-49.073231-13.193846-98.146462 3.780923-126.424616 15.084308-22.646154 43.401846-33.988923 67.938462-35.84 1.890462 0 0-7.561846 0-7.561846v218.899692h-241.545846v49.073231h241.545846v96.216616h-37.730462c-49.073231-49.033846-94.365538-96.216615-94.365538-96.216616l-66.048 58.486154c47.182769 49.073231 94.365538 128.315077 124.534154 181.169231-24.536615-9.452308-49.073231-20.755692-73.570462-30.208a1234.353231 1234.353231 0 0 0-84.952615-94.326154c1.890462-1.890462-109.449846 62.227692-109.449847 62.227692C418.540308 665.206154 482.697846 874.692923 482.697846 874.692923l158.523077-43.401846s-13.193846-30.168615-39.620923-77.351385c634.092308 179.278769 669.932308-109.489231 669.932308-109.48923s39.660308-203.815385 5.671384-518.971077z"  horiz-adv-x="1299" />

    


  </font>
</defs>
</svg>
